<mxfile host="app.diagrams.net" agent="Mozilla/5.0 (X11; Linux x86_64; rv:140.0) Gecko/20100101 Firefox/140.0" version="27.2.0">
  <diagram name="Page-1" id="Z8xAweuGRpCw51oKIr_d">
    <mxGraphModel dx="983" dy="550" grid="1" gridSize="10" guides="1" tooltips="1" connect="1" arrows="1" fold="1" page="1" pageScale="1" pageWidth="850" pageHeight="1100" math="0" shadow="0">
      <root>
        <mxCell id="0" />
        <mxCell id="1" parent="0" />
        <mxCell id="XnmA7MXTA0rQ7lsBsSYc-9" value="Compiler Middle-End" style="rounded=1;whiteSpace=wrap;html=1;fillColor=#ffe6cc;strokeColor=#d79b00;verticalAlign=top;" vertex="1" parent="1">
          <mxGeometry x="420" y="200" width="200" height="200" as="geometry" />
        </mxCell>
        <mxCell id="XnmA7MXTA0rQ7lsBsSYc-6" value="Compiler Front-end" style="rounded=1;whiteSpace=wrap;html=1;fillColor=#fff2cc;strokeColor=#d6b656;verticalAlign=top;" vertex="1" parent="1">
          <mxGeometry x="210" y="200" width="210" height="200" as="geometry" />
        </mxCell>
        <mxCell id="XnmA7MXTA0rQ7lsBsSYc-29" style="edgeStyle=orthogonalEdgeStyle;rounded=0;orthogonalLoop=1;jettySize=auto;html=1;exitX=1;exitY=0.5;exitDx=0;exitDy=0;entryX=0;entryY=0.5;entryDx=0;entryDy=0;" edge="1" parent="1" source="XnmA7MXTA0rQ7lsBsSYc-1" target="XnmA7MXTA0rQ7lsBsSYc-2">
          <mxGeometry relative="1" as="geometry" />
        </mxCell>
        <mxCell id="XnmA7MXTA0rQ7lsBsSYc-1" value="C Code" style="rounded=0;whiteSpace=wrap;html=1;" vertex="1" parent="1">
          <mxGeometry x="70" y="320" width="120" height="60" as="geometry" />
        </mxCell>
        <mxCell id="XnmA7MXTA0rQ7lsBsSYc-7" style="edgeStyle=orthogonalEdgeStyle;rounded=0;orthogonalLoop=1;jettySize=auto;html=1;exitX=1;exitY=0.5;exitDx=0;exitDy=0;entryX=0;entryY=0.5;entryDx=0;entryDy=0;" edge="1" parent="1" source="XnmA7MXTA0rQ7lsBsSYc-2" target="XnmA7MXTA0rQ7lsBsSYc-3">
          <mxGeometry relative="1" as="geometry" />
        </mxCell>
        <mxCell id="XnmA7MXTA0rQ7lsBsSYc-2" value="Preprocessor" style="rounded=1;whiteSpace=wrap;html=1;fillColor=#f5f5f5;fontColor=#333333;strokeColor=#666666;" vertex="1" parent="1">
          <mxGeometry x="220" y="320" width="80" height="60" as="geometry" />
        </mxCell>
        <mxCell id="XnmA7MXTA0rQ7lsBsSYc-3" value="&lt;div&gt;Parser&lt;br&gt;Lexer&lt;/div&gt;" style="rounded=1;whiteSpace=wrap;html=1;fillColor=#f5f5f5;fontColor=#333333;strokeColor=#666666;" vertex="1" parent="1">
          <mxGeometry x="320" y="320" width="90" height="60" as="geometry" />
        </mxCell>
        <mxCell id="XnmA7MXTA0rQ7lsBsSYc-27" style="edgeStyle=orthogonalEdgeStyle;rounded=0;orthogonalLoop=1;jettySize=auto;html=1;exitX=1;exitY=0.5;exitDx=0;exitDy=0;entryX=0;entryY=0.5;entryDx=0;entryDy=0;" edge="1" parent="1" source="XnmA7MXTA0rQ7lsBsSYc-5" target="XnmA7MXTA0rQ7lsBsSYc-25">
          <mxGeometry relative="1" as="geometry" />
        </mxCell>
        <mxCell id="XnmA7MXTA0rQ7lsBsSYc-5" value="&lt;div&gt;Abstract Syntax Tree&lt;/div&gt;&lt;div&gt;Construction&lt;/div&gt;" style="rounded=1;whiteSpace=wrap;html=1;fillColor=#f5f5f5;fontColor=#333333;strokeColor=#666666;" vertex="1" parent="1">
          <mxGeometry x="220" y="240" width="80" height="60" as="geometry" />
        </mxCell>
        <mxCell id="XnmA7MXTA0rQ7lsBsSYc-10" value="Compiler Back-end" style="rounded=1;whiteSpace=wrap;html=1;fillColor=#f8cecc;strokeColor=#b85450;verticalAlign=top;" vertex="1" parent="1">
          <mxGeometry x="620" y="200" width="200" height="110" as="geometry" />
        </mxCell>
        <mxCell id="XnmA7MXTA0rQ7lsBsSYc-17" style="edgeStyle=orthogonalEdgeStyle;rounded=0;orthogonalLoop=1;jettySize=auto;html=1;exitX=0.5;exitY=1;exitDx=0;exitDy=0;entryX=0.25;entryY=0;entryDx=0;entryDy=0;" edge="1" parent="1" source="XnmA7MXTA0rQ7lsBsSYc-11" target="XnmA7MXTA0rQ7lsBsSYc-14">
          <mxGeometry relative="1" as="geometry" />
        </mxCell>
        <mxCell id="XnmA7MXTA0rQ7lsBsSYc-11" value="Analysis" style="rounded=1;whiteSpace=wrap;html=1;fillColor=#d5e8d4;strokeColor=#82b366;" vertex="1" parent="1">
          <mxGeometry x="430" y="240" width="80" height="60" as="geometry" />
        </mxCell>
        <mxCell id="XnmA7MXTA0rQ7lsBsSYc-30" style="edgeStyle=orthogonalEdgeStyle;rounded=0;orthogonalLoop=1;jettySize=auto;html=1;exitX=1;exitY=0.5;exitDx=0;exitDy=0;entryX=0;entryY=0.5;entryDx=0;entryDy=0;" edge="1" parent="1" source="XnmA7MXTA0rQ7lsBsSYc-12" target="XnmA7MXTA0rQ7lsBsSYc-21">
          <mxGeometry relative="1" as="geometry" />
        </mxCell>
        <mxCell id="XnmA7MXTA0rQ7lsBsSYc-12" value="Lowering" style="rounded=1;whiteSpace=wrap;html=1;fillColor=#f5f5f5;fontColor=#333333;strokeColor=#666666;" vertex="1" parent="1">
          <mxGeometry x="520" y="240" width="80" height="60" as="geometry" />
        </mxCell>
        <mxCell id="XnmA7MXTA0rQ7lsBsSYc-18" style="edgeStyle=orthogonalEdgeStyle;rounded=0;orthogonalLoop=1;jettySize=auto;html=1;exitX=0.75;exitY=0;exitDx=0;exitDy=0;entryX=0.5;entryY=1;entryDx=0;entryDy=0;" edge="1" parent="1" source="XnmA7MXTA0rQ7lsBsSYc-14" target="XnmA7MXTA0rQ7lsBsSYc-12">
          <mxGeometry relative="1" as="geometry" />
        </mxCell>
        <mxCell id="XnmA7MXTA0rQ7lsBsSYc-14" value="&lt;div&gt;Optimization&lt;/div&gt;&lt;div&gt;passes&lt;/div&gt;" style="rounded=1;whiteSpace=wrap;html=1;fillColor=#d5e8d4;strokeColor=#82b366;" vertex="1" parent="1">
          <mxGeometry x="430" y="320" width="170" height="60" as="geometry" />
        </mxCell>
        <mxCell id="XnmA7MXTA0rQ7lsBsSYc-35" style="edgeStyle=orthogonalEdgeStyle;rounded=0;orthogonalLoop=1;jettySize=auto;html=1;exitX=1;exitY=0.5;exitDx=0;exitDy=0;entryX=0;entryY=0.5;entryDx=0;entryDy=0;" edge="1" parent="1" source="XnmA7MXTA0rQ7lsBsSYc-21" target="XnmA7MXTA0rQ7lsBsSYc-22">
          <mxGeometry relative="1" as="geometry" />
        </mxCell>
        <mxCell id="XnmA7MXTA0rQ7lsBsSYc-21" value="Code Gen" style="rounded=1;whiteSpace=wrap;html=1;fillColor=#f5f5f5;fontColor=#333333;strokeColor=#666666;" vertex="1" parent="1">
          <mxGeometry x="630" y="240" width="80" height="60" as="geometry" />
        </mxCell>
        <mxCell id="XnmA7MXTA0rQ7lsBsSYc-22" value="&lt;div&gt;Target&lt;/div&gt;&lt;div&gt;specific&lt;/div&gt;&lt;div&gt;Optimization&lt;/div&gt;" style="rounded=1;whiteSpace=wrap;html=1;fillColor=#d5e8d4;strokeColor=#82b366;dashed=1;" vertex="1" parent="1">
          <mxGeometry x="730" y="240" width="80" height="60" as="geometry" />
        </mxCell>
        <mxCell id="XnmA7MXTA0rQ7lsBsSYc-37" style="edgeStyle=orthogonalEdgeStyle;rounded=0;orthogonalLoop=1;jettySize=auto;html=1;exitX=1;exitY=0.5;exitDx=0;exitDy=0;entryX=0;entryY=0.5;entryDx=0;entryDy=0;" edge="1" parent="1" source="XnmA7MXTA0rQ7lsBsSYc-23" target="XnmA7MXTA0rQ7lsBsSYc-24">
          <mxGeometry relative="1" as="geometry" />
        </mxCell>
        <mxCell id="XnmA7MXTA0rQ7lsBsSYc-23" value="&lt;div&gt;Linker&lt;br&gt;(Link time Optimization)&lt;/div&gt;" style="rounded=1;whiteSpace=wrap;html=1;fillColor=#f5f5f5;fontColor=#333333;strokeColor=#666666;" vertex="1" parent="1">
          <mxGeometry x="630" y="320" width="180" height="60" as="geometry" />
        </mxCell>
        <mxCell id="XnmA7MXTA0rQ7lsBsSYc-45" style="edgeStyle=orthogonalEdgeStyle;rounded=0;orthogonalLoop=1;jettySize=auto;html=1;exitX=0.5;exitY=0;exitDx=0;exitDy=0;entryX=0.25;entryY=0;entryDx=0;entryDy=0;" edge="1" parent="1" source="XnmA7MXTA0rQ7lsBsSYc-24" target="XnmA7MXTA0rQ7lsBsSYc-11">
          <mxGeometry relative="1" as="geometry">
            <Array as="points">
              <mxPoint x="890" y="150" />
              <mxPoint x="450" y="150" />
            </Array>
          </mxGeometry>
        </mxCell>
        <mxCell id="XnmA7MXTA0rQ7lsBsSYc-46" value="Profile Guided optimization" style="edgeLabel;html=1;align=center;verticalAlign=middle;resizable=0;points=[];" vertex="1" connectable="0" parent="XnmA7MXTA0rQ7lsBsSYc-45">
          <mxGeometry x="0.3801" y="-2" relative="1" as="geometry">
            <mxPoint x="123" y="2" as="offset" />
          </mxGeometry>
        </mxCell>
        <mxCell id="XnmA7MXTA0rQ7lsBsSYc-24" value="Binary" style="rounded=0;whiteSpace=wrap;html=1;" vertex="1" parent="1">
          <mxGeometry x="830" y="320" width="120" height="60" as="geometry" />
        </mxCell>
        <mxCell id="XnmA7MXTA0rQ7lsBsSYc-28" style="edgeStyle=orthogonalEdgeStyle;rounded=0;orthogonalLoop=1;jettySize=auto;html=1;exitX=1;exitY=0.5;exitDx=0;exitDy=0;entryX=0;entryY=0.5;entryDx=0;entryDy=0;" edge="1" parent="1" source="XnmA7MXTA0rQ7lsBsSYc-25" target="XnmA7MXTA0rQ7lsBsSYc-11">
          <mxGeometry relative="1" as="geometry" />
        </mxCell>
        <mxCell id="XnmA7MXTA0rQ7lsBsSYc-25" value="&lt;div&gt;Semantic Analysis&lt;/div&gt;&lt;div&gt;IR Generation&lt;/div&gt;" style="rounded=1;whiteSpace=wrap;html=1;fillColor=#f5f5f5;fontColor=#333333;strokeColor=#666666;" vertex="1" parent="1">
          <mxGeometry x="320" y="240" width="90" height="60" as="geometry" />
        </mxCell>
        <mxCell id="XnmA7MXTA0rQ7lsBsSYc-26" value="" style="endArrow=classic;html=1;rounded=0;exitX=0.028;exitY=0.043;exitDx=0;exitDy=0;exitPerimeter=0;entryX=0.96;entryY=0.981;entryDx=0;entryDy=0;entryPerimeter=0;" edge="1" parent="1" source="XnmA7MXTA0rQ7lsBsSYc-3" target="XnmA7MXTA0rQ7lsBsSYc-5">
          <mxGeometry width="50" height="50" relative="1" as="geometry">
            <mxPoint x="350" y="360" as="sourcePoint" />
            <mxPoint x="400" y="310" as="targetPoint" />
          </mxGeometry>
        </mxCell>
        <mxCell id="XnmA7MXTA0rQ7lsBsSYc-39" style="edgeStyle=orthogonalEdgeStyle;rounded=0;orthogonalLoop=1;jettySize=auto;html=1;exitX=0.5;exitY=1;exitDx=0;exitDy=0;entryX=0.777;entryY=0.004;entryDx=0;entryDy=0;entryPerimeter=0;" edge="1" parent="1" source="XnmA7MXTA0rQ7lsBsSYc-22" target="XnmA7MXTA0rQ7lsBsSYc-23">
          <mxGeometry relative="1" as="geometry" />
        </mxCell>
        <mxCell id="XnmA7MXTA0rQ7lsBsSYc-42" style="rounded=0;orthogonalLoop=1;jettySize=auto;html=1;exitX=0.5;exitY=0;exitDx=0;exitDy=0;entryX=0.5;entryY=1;entryDx=0;entryDy=0;" edge="1" parent="1" source="XnmA7MXTA0rQ7lsBsSYc-40" target="XnmA7MXTA0rQ7lsBsSYc-23">
          <mxGeometry relative="1" as="geometry" />
        </mxCell>
        <mxCell id="XnmA7MXTA0rQ7lsBsSYc-40" value="Libraries" style="rounded=0;whiteSpace=wrap;html=1;fillColor=#f5f5f5;fontColor=#333333;strokeColor=#666666;dashed=1;dashPattern=8 8;" vertex="1" parent="1">
          <mxGeometry x="590" y="420" width="120" height="60" as="geometry" />
        </mxCell>
        <mxCell id="XnmA7MXTA0rQ7lsBsSYc-43" style="rounded=0;orthogonalLoop=1;jettySize=auto;html=1;exitX=0.5;exitY=0;exitDx=0;exitDy=0;entryX=0.5;entryY=1;entryDx=0;entryDy=0;" edge="1" parent="1" source="XnmA7MXTA0rQ7lsBsSYc-41" target="XnmA7MXTA0rQ7lsBsSYc-23">
          <mxGeometry relative="1" as="geometry" />
        </mxCell>
        <mxCell id="XnmA7MXTA0rQ7lsBsSYc-41" value="&lt;div&gt;Other preprocessed&lt;/div&gt;&lt;div&gt;files&lt;/div&gt;" style="rounded=0;whiteSpace=wrap;html=1;fillColor=#f5f5f5;fontColor=#333333;strokeColor=#666666;dashed=1;dashPattern=8 8;" vertex="1" parent="1">
          <mxGeometry x="730" y="420" width="120" height="60" as="geometry" />
        </mxCell>
      </root>
    </mxGraphModel>
  </diagram>
</mxfile>
